<svg width="22" height="14" viewBox="0 0 22 14" fill="none" xmlns="http://www.w3.org/2000/svg">
<path d="M9.44 12.464C9.45067 12.4933 9.46933 12.516 9.496 12.532C9.52267 12.548 9.55467 12.556 9.592 12.556C9.76 12.556 9.89467 12.448 9.996 12.232C10.1 12.016 10.152 11.7653 10.152 11.48C10.152 11.3707 10.136 11.288 10.104 11.232C10.072 11.176 10.0213 11.148 9.952 11.148C9.904 11.148 9.85467 11.1667 9.804 11.204C9.75333 11.2387 9.71067 11.2853 9.676 11.344L9.44 12.464ZM9.168 13.736L8.564 13.88L9.232 10.732H9.808L9.744 11.032C9.81067 10.976 9.88267 10.9333 9.96 10.904C10.0373 10.8747 10.1213 10.86 10.212 10.86C10.372 10.86 10.4933 10.9133 10.576 11.02C10.6587 11.1267 10.7 11.284 10.7 11.492C10.7 11.9 10.612 12.2373 10.436 12.504C10.2627 12.7707 10.0227 12.904 9.716 12.904C9.63067 12.904 9.55867 12.892 9.5 12.868C9.444 12.844 9.40267 12.808 9.376 12.76L9.168 13.736Z" fill="black"/>
<path d="M12.1108 11.064V11.092L12.1548 10.88H12.7308L12.4428 12.24C12.4375 12.264 12.4335 12.2867 12.4308 12.308C12.4281 12.3267 12.4268 12.3467 12.4268 12.368C12.4268 12.4267 12.4401 12.4707 12.4668 12.5C12.4935 12.5267 12.5348 12.54 12.5908 12.54C12.6601 12.54 12.7228 12.508 12.7788 12.444C12.8348 12.3773 12.8801 12.284 12.9148 12.164H13.0828C12.9975 12.4093 12.8868 12.5947 12.7508 12.72C12.6148 12.8427 12.4575 12.904 12.2788 12.904C12.1641 12.904 12.0721 12.872 12.0028 12.808C11.9361 12.744 11.8975 12.6533 11.8868 12.536C11.8041 12.6587 11.7121 12.7507 11.6108 12.812C11.5121 12.8733 11.4055 12.904 11.2908 12.904C11.1255 12.904 10.9948 12.848 10.8988 12.736C10.8055 12.624 10.7588 12.4653 10.7588 12.26C10.7588 12.1107 10.7815 11.9547 10.8268 11.792C10.8721 11.6293 10.9348 11.4813 11.0148 11.348C11.1135 11.1907 11.2281 11.0707 11.3588 10.988C11.4895 10.9027 11.6321 10.86 11.7868 10.86C11.8908 10.86 11.9708 10.8787 12.0268 10.916C12.0828 10.9507 12.1108 11 12.1108 11.064ZM12.0748 11.26C12.0748 11.22 12.0601 11.1853 12.0308 11.156C12.0015 11.124 11.9615 11.108 11.9108 11.108C11.7641 11.108 11.6335 11.2307 11.5188 11.476C11.4068 11.7213 11.3508 11.964 11.3508 12.204C11.3508 12.308 11.3655 12.3867 11.3948 12.44C11.4241 12.4907 11.4761 12.516 11.5508 12.516C11.6201 12.516 11.6868 12.4827 11.7508 12.416C11.8175 12.3493 11.8615 12.2653 11.8828 12.164L12.0748 11.26Z" fill="black"/>
<path d="M12.8843 12.424C12.8843 12.3893 12.8869 12.3507 12.8923 12.308C12.8976 12.2627 12.9056 12.2147 12.9163 12.164L13.3443 10.16L13.9363 10.08L13.4763 12.24C13.4709 12.264 13.4669 12.2867 13.4643 12.308C13.4616 12.3267 13.4603 12.3467 13.4603 12.368C13.4603 12.4213 13.4723 12.46 13.4963 12.484C13.5229 12.5053 13.5656 12.516 13.6243 12.516C13.6989 12.516 13.7696 12.484 13.8363 12.42C13.9029 12.3533 13.9523 12.268 13.9843 12.164H14.1523C14.0669 12.4067 13.9523 12.5907 13.8083 12.716C13.6643 12.8413 13.4989 12.904 13.3123 12.904C13.1789 12.904 13.0736 12.8627 12.9963 12.78C12.9216 12.6947 12.8843 12.576 12.8843 12.424Z" fill="black"/>
<path d="M15.3882 11.228C15.3882 11.4493 15.2975 11.6427 15.1162 11.808C14.9349 11.9707 14.7189 12.0587 14.4682 12.072C14.4655 12.1173 14.4629 12.152 14.4602 12.176C14.4602 12.1973 14.4602 12.216 14.4602 12.232C14.4602 12.3547 14.4802 12.4413 14.5202 12.492C14.5629 12.5427 14.6389 12.568 14.7482 12.568C14.8735 12.568 14.9882 12.54 15.0922 12.484C15.1989 12.4253 15.3202 12.3187 15.4562 12.164H15.5922C15.4375 12.4147 15.2695 12.6013 15.0882 12.724C14.9069 12.844 14.7082 12.904 14.4922 12.904C14.2869 12.904 14.1309 12.8507 14.0242 12.744C13.9202 12.6373 13.8682 12.4787 13.8682 12.268C13.8682 12.116 13.8922 11.9547 13.9402 11.784C13.9882 11.6133 14.0522 11.4613 14.1322 11.328C14.2309 11.168 14.3482 11.048 14.4842 10.968C14.6229 10.8853 14.7775 10.844 14.9482 10.844C15.0949 10.844 15.2042 10.876 15.2762 10.94C15.3509 11.0013 15.3882 11.0973 15.3882 11.228ZM14.9802 11.056C14.8895 11.056 14.7975 11.1373 14.7042 11.3C14.6135 11.46 14.5455 11.6533 14.5002 11.88C14.6549 11.8693 14.7895 11.7987 14.9042 11.668C15.0215 11.5347 15.0802 11.3853 15.0802 11.22C15.0802 11.164 15.0722 11.1227 15.0562 11.096C15.0402 11.0693 15.0149 11.056 14.9802 11.056Z" fill="black"/>
<path d="M15.5992 10.88H15.7312L15.8512 10.328L16.4433 10.248L16.3073 10.88H16.5473L16.5152 11.04H16.2752L16.0193 12.24C16.0139 12.264 16.0099 12.2867 16.0072 12.308C16.0046 12.3267 16.0033 12.3467 16.0033 12.368C16.0033 12.4213 16.0152 12.46 16.0392 12.484C16.0659 12.5053 16.1086 12.516 16.1672 12.516C16.2419 12.516 16.3126 12.484 16.3792 12.42C16.4459 12.3533 16.4953 12.268 16.5273 12.164H16.6952C16.6099 12.4067 16.4952 12.5907 16.3512 12.716C16.2072 12.8413 16.0419 12.904 15.8553 12.904C15.7219 12.904 15.6166 12.8627 15.5393 12.78C15.4646 12.6947 15.4272 12.576 15.4272 12.424C15.4272 12.3893 15.4299 12.3507 15.4353 12.308C15.4406 12.2627 15.4486 12.2147 15.4593 12.164L15.6993 11.04H15.5673L15.5992 10.88Z" fill="black"/>
<path d="M16.6657 10.88H16.7977L16.9177 10.328L17.5097 10.248L17.3737 10.88H17.6137L17.5817 11.04H17.3417L17.0857 12.24C17.0803 12.264 17.0763 12.2867 17.0737 12.308C17.071 12.3267 17.0697 12.3467 17.0697 12.368C17.0697 12.4213 17.0817 12.46 17.1057 12.484C17.1323 12.5053 17.175 12.516 17.2337 12.516C17.3083 12.516 17.379 12.484 17.4457 12.42C17.5123 12.3533 17.5617 12.268 17.5937 12.164H17.7617C17.6763 12.4067 17.5617 12.5907 17.4177 12.716C17.2737 12.8413 17.1083 12.904 16.9217 12.904C16.7883 12.904 16.683 12.8627 16.6057 12.78C16.531 12.6947 16.4937 12.576 16.4937 12.424C16.4937 12.3893 16.4963 12.3507 16.5017 12.308C16.507 12.2627 16.515 12.2147 16.5257 12.164L16.7657 11.04H16.6337L16.6657 10.88Z" fill="black"/>
<path d="M17.4853 12.264C17.4853 12.112 17.5093 11.9507 17.5573 11.78C17.6079 11.6093 17.6759 11.4573 17.7613 11.324C17.8599 11.1667 17.9786 11.048 18.1173 10.968C18.2559 10.8853 18.4106 10.844 18.5813 10.844C18.7519 10.844 18.8799 10.8973 18.9653 11.004C19.0506 11.1107 19.0933 11.2707 19.0933 11.484C19.0986 11.4867 19.1039 11.4893 19.1093 11.492C19.1173 11.492 19.1266 11.492 19.1373 11.492C19.2199 11.492 19.3186 11.4693 19.4333 11.424C19.5479 11.3787 19.6546 11.3213 19.7533 11.252L19.7893 11.36C19.7146 11.44 19.6146 11.5093 19.4893 11.568C19.3666 11.6267 19.2306 11.668 19.0813 11.692C19.0493 12.052 18.9453 12.3427 18.7693 12.564C18.5933 12.7853 18.3786 12.896 18.1253 12.896C17.9173 12.896 17.7586 12.8427 17.6493 12.736C17.5399 12.6293 17.4853 12.472 17.4853 12.264ZM18.6133 11.088C18.4853 11.088 18.3639 11.2173 18.2493 11.476C18.1373 11.7347 18.0813 11.98 18.0813 12.212C18.0813 12.3373 18.0946 12.4227 18.1213 12.468C18.1506 12.5133 18.2053 12.536 18.2853 12.536C18.3839 12.536 18.4773 12.456 18.5653 12.296C18.6559 12.136 18.7173 11.9387 18.7493 11.704C18.7119 11.696 18.6839 11.6787 18.6653 11.652C18.6493 11.6227 18.6413 11.584 18.6413 11.536C18.6413 11.4853 18.6519 11.4413 18.6733 11.404C18.6946 11.3667 18.7253 11.3387 18.7653 11.32C18.7599 11.2347 18.7453 11.1747 18.7213 11.14C18.6999 11.1053 18.6639 11.088 18.6133 11.088Z" fill="black"/>
<path d="M20.2906 12.452C20.2906 12.404 20.296 12.344 20.3066 12.272C20.32 12.2 20.3453 12.0853 20.3826 11.928C20.42 11.776 20.444 11.6667 20.4546 11.6C20.4653 11.5333 20.4706 11.4773 20.4706 11.432C20.4706 11.3653 20.4586 11.3147 20.4346 11.28C20.4106 11.2453 20.3746 11.228 20.3266 11.228C20.2626 11.228 20.2026 11.2613 20.1466 11.328C20.0933 11.392 20.0493 11.4813 20.0146 11.596L19.7426 12.88H19.1666L19.5906 10.88H20.1666L20.1226 11.088C20.1893 11.0133 20.2613 10.9573 20.3386 10.92C20.416 10.8827 20.5 10.864 20.5906 10.864C20.732 10.864 20.8413 10.9027 20.9186 10.98C20.996 11.0573 21.0346 11.1693 21.0346 11.316C21.0346 11.3773 21.0266 11.4507 21.0106 11.536C20.9973 11.6187 20.9693 11.7467 20.9266 11.92C20.892 12.056 20.8693 12.152 20.8586 12.208C20.848 12.264 20.8426 12.3107 20.8426 12.348C20.8426 12.404 20.856 12.4467 20.8826 12.476C20.9093 12.5027 20.9493 12.516 21.0026 12.516C21.0693 12.516 21.1266 12.4933 21.1746 12.448C21.2226 12.4027 21.2773 12.308 21.3386 12.164H21.5066C21.4213 12.412 21.3173 12.5973 21.1946 12.72C21.0746 12.8427 20.9306 12.904 20.7626 12.904C20.6133 12.904 20.4973 12.864 20.4146 12.784C20.332 12.7013 20.2906 12.5907 20.2906 12.452Z" fill="black"/>
<path d="M1.524 0.84C1.932 0.576 2.368 0.372 2.832 0.228C3.304 0.076 3.764 0 4.212 0C4.268 0 4.328 0.00399995 4.392 0.0119998C4.464 0.0119998 4.564 0.0159998 4.692 0.0239997L2.844 8.64C3.028 8.68 3.224 8.748 3.432 8.844C3.648 8.932 3.972 9.092 4.404 9.324C5.052 9.676 5.548 9.908 5.892 10.02C6.236 10.132 6.564 10.188 6.876 10.188C7.06 10.188 7.232 10.172 7.392 10.14C7.56 10.108 7.724 10.06 7.884 9.996C7.82 10.572 7.676 11.028 7.452 11.364C7.228 11.708 6.956 11.88 6.636 11.88C6.348 11.88 6.04 11.8 5.712 11.64C5.392 11.488 4.904 11.152 4.248 10.632C3.496 10.024 2.912 9.624 2.496 9.432C2.08 9.248 1.676 9.156 1.284 9.156C1.212 9.156 1.156 9.156 1.116 9.156C1.076 9.156 1.04 9.16 1.008 9.168L2.796 0.852C2.252 1.076 1.836 1.412 1.548 1.86C1.26 2.308 1.116 2.844 1.116 3.468C1.116 3.62 1.124 3.752 1.14 3.864C1.164 3.976 1.2 4.084 1.248 4.188C1.264 4.22 1.272 4.244 1.272 4.26C1.28 4.268 1.284 4.276 1.284 4.284C0.836 4.284 0.508 4.192 0.3 4.008C0.1 3.816 0 3.52 0 3.12C0 2.72 0.132 2.32 0.396 1.92C0.668 1.52 1.044 1.16 1.524 0.84Z" fill="black"/>
<path d="M7.43888 1.284C7.43888 1.548 7.34288 1.772 7.15088 1.956C6.96688 2.14 6.74288 2.232 6.47888 2.232C6.21488 2.232 5.99088 2.14 5.80688 1.956C5.62288 1.772 5.53088 1.548 5.53088 1.284C5.53088 1.02 5.62288 0.796 5.80688 0.612C5.99088 0.42 6.21488 0.323999 6.47888 0.323999C6.74288 0.323999 6.96688 0.42 7.15088 0.612C7.34288 0.796 7.43888 1.02 7.43888 1.284ZM4.37887 7.512C4.37887 7.408 4.38687 7.292 4.40287 7.164C4.41887 7.028 4.44287 6.884 4.47487 6.732L5.29087 2.88H7.01888L6.15487 6.96C6.13887 7.032 6.12688 7.1 6.11888 7.164C6.11088 7.22 6.10687 7.28 6.10687 7.344C6.10687 7.504 6.14288 7.62 6.21488 7.692C6.29488 7.756 6.42288 7.788 6.59888 7.788C6.82288 7.788 7.03488 7.692 7.23488 7.5C7.43488 7.3 7.58288 7.044 7.67888 6.732H8.18288C7.92688 7.46 7.58288 8.012 7.15088 8.388C6.71888 8.764 6.22288 8.952 5.66288 8.952C5.26288 8.952 4.94688 8.828 4.71488 8.58C4.49088 8.324 4.37887 7.968 4.37887 7.512Z" fill="black"/>
<path d="M10.4963 7.596C10.4963 7.452 10.5123 7.272 10.5443 7.056C10.5843 6.84 10.6603 6.496 10.7723 6.024C10.8843 5.568 10.9563 5.24 10.9883 5.04C11.0203 4.84 11.0363 4.672 11.0363 4.536C11.0363 4.336 11.0003 4.184 10.9283 4.08C10.8563 3.976 10.7483 3.924 10.6043 3.924C10.4123 3.924 10.2323 4.024 10.0643 4.224C9.90434 4.416 9.77234 4.684 9.66834 5.028L8.85234 8.88H7.12434L8.39634 2.88H10.1243L9.99234 3.504C10.1923 3.28 10.4083 3.112 10.6403 3C10.8723 2.888 11.1243 2.832 11.3963 2.832C11.8203 2.832 12.1483 2.948 12.3803 3.18C12.6123 3.412 12.7283 3.748 12.7283 4.188C12.7283 4.372 12.7043 4.592 12.6563 4.848C12.6163 5.096 12.5323 5.48 12.4043 6C12.3003 6.408 12.2323 6.696 12.2003 6.864C12.1683 7.032 12.1523 7.172 12.1523 7.284C12.1523 7.452 12.1923 7.58 12.2723 7.668C12.3523 7.748 12.4723 7.788 12.6323 7.788C12.8323 7.788 13.0043 7.72 13.1483 7.584C13.2923 7.448 13.4563 7.164 13.6403 6.732H14.1443C13.8883 7.476 13.5763 8.032 13.2083 8.4C12.8483 8.768 12.4163 8.952 11.9123 8.952C11.4643 8.952 11.1163 8.832 10.8683 8.592C10.6203 8.344 10.4963 8.012 10.4963 7.596Z" fill="black"/>
<path d="M18.1484 3.924C18.1484 4.588 17.8764 5.168 17.3324 5.664C16.7884 6.152 16.1404 6.416 15.3884 6.456C15.3804 6.592 15.3724 6.696 15.3644 6.768C15.3644 6.832 15.3644 6.888 15.3644 6.936C15.3644 7.304 15.4244 7.564 15.5444 7.716C15.6724 7.868 15.9004 7.944 16.2284 7.944C16.6044 7.944 16.9484 7.86 17.2604 7.692C17.5804 7.516 17.9444 7.196 18.3524 6.732H18.7604C18.2964 7.484 17.7924 8.044 17.2484 8.412C16.7044 8.772 16.1084 8.952 15.4604 8.952C14.8444 8.952 14.3764 8.792 14.0564 8.472C13.7444 8.152 13.5884 7.676 13.5884 7.044C13.5884 6.588 13.6604 6.104 13.8044 5.592C13.9484 5.08 14.1404 4.624 14.3804 4.224C14.6764 3.744 15.0284 3.384 15.4364 3.144C15.8524 2.896 16.3164 2.772 16.8284 2.772C17.2684 2.772 17.5964 2.868 17.8124 3.06C18.0364 3.244 18.1484 3.532 18.1484 3.924ZM16.9244 3.408C16.6524 3.408 16.3764 3.652 16.0964 4.14C15.8244 4.62 15.6204 5.2 15.4844 5.88C15.9484 5.848 16.3524 5.636 16.6964 5.244C17.0484 4.844 17.2244 4.396 17.2244 3.9C17.2244 3.732 17.2004 3.608 17.1524 3.528C17.1044 3.448 17.0284 3.408 16.9244 3.408Z" fill="black"/>
</svg>
